name C:\Users\antoi\Documents\MyRepositories\upper-imu-dc\Results\main_tracking\Case_74\kinematics.mot
datacolumns 43
datarows 4
range 3.80000000 3.86000000
endheader 
time	clav_prot	clav_elev	scapula_abduction	scapula_elevation	scapula_upward_rot	scapula_winging	plane_elv	shoulder_elv	axial_rot	TrapeziusScapula_M/activation	TrapeziusScapula_S/activation	TrapeziusScapula_I/activation	TrapeziusClavicle_S/activation	SerratusAnterior_I/activation	SerratusAnterior_M/activation	SerratusAnterior_S/activation	Rhomboideus_S/activation	Rhomboideus_I/activation	LevatorScapulae/activation	Coracobrachialis/activation	DeltoideusClavicle_A/activation	DeltoideusScapula_P/activation	DeltoideusScapula_M/activation	LatissimusDorsi_S/activation	LatissimusDorsi_M/activation	LatissimusDorsi_I/activation	PectoralisMajorClavicle_S/activation	PectoralisMajorThorax_I/activation	PectoralisMajorThorax_M/activation	TeresMajor/activation	Infraspinatus_I/activation	Infraspinatus_S/activation	PectoralisMinor/activation	TeresMinor/activation	Subscapularis_S/activation	Subscapularis_M/activation	Subscapularis_I/activation	Supraspinatus_P/activation	Supraspinatus_A/activation	TRIlong/activation	BIC_long/activation	BIC_brevis/activation	
          3.80000000	        -25.37239540	         -2.80924812	        -13.82125333	         -4.66335297	         19.36246474	          3.29476939	        -15.62221524	         42.48463511	          9.56445795	          0.01000002	          0.06317597	          0.01000000	          0.03183137	          0.04955944	          0.07913486	          0.01000001	          0.01334943	          0.01000004	          0.03009353	          0.01874167	          0.05771083	          0.01000000	          0.08207126	          0.01000000	          0.01000000	          0.01000000	          0.03471362	          0.01000000	          0.01469320	          0.01000000	          0.02020959	          0.02180521	          0.01000000	          0.01000003	          0.01000003	          0.01000001	          0.01000000	          0.02510989	          0.04433827	          0.01000000	          0.06128548	          0.02085441	
          3.82000000	        -25.65555808	         -2.66747015	        -14.00512323	         -4.69930191	         19.89068322	          3.10104859	        -15.21042849	         43.10397402	          9.20214835	          0.01000002	          0.06396706	          0.01000000	          0.03184860	          0.05062619	          0.08028711	          0.01000001	          0.01324869	          0.01000003	          0.02979178	          0.01941790	          0.05919956	          0.01000000	          0.08347958	          0.01000000	          0.01000000	          0.01000000	          0.03496679	          0.01000000	          0.01477341	          0.01000000	          0.02055100	          0.02198563	          0.01000000	          0.01000003	          0.01000003	          0.01000001	          0.01000000	          0.02573067	          0.04568076	          0.01000000	          0.06248332	          0.02135596	
          3.84000000	        -25.94375716	         -2.51937017	        -14.18003594	         -4.73575502	         20.44421807	          2.89632708	        -14.80282161	         43.71607450	          8.82196625	          0.01000002	          0.06475006	          0.01000000	          0.03185725	          0.05156409	          0.08139091	          0.01000001	          0.01316062	          0.01000003	          0.02950763	          0.02015129	          0.06068212	          0.01000000	          0.08468304	          0.01000000	          0.01000000	          0.01000000	          0.03522531	          0.01000000	          0.01485641	          0.01000000	          0.02085286	          0.02207083	          0.01000000	          0.01000003	          0.01000003	          0.01000001	          0.01000000	          0.02633196	          0.04702135	          0.01000000	          0.06364339	          0.02188672	
          3.86000000	        -26.23765267	         -2.36401741	        -14.34603262	         -4.77223480	         21.02459002	          2.67982631	        -14.39899106	         44.32001297	          8.42675293	          0.01000002	          0.06550532	          0.01000000	          0.03183295	          0.05239582	          0.08241088	          0.01000001	          0.01309521	          0.01000003	          0.02925345	          0.02092943	          0.06214859	          0.01000000	          0.08569035	          0.01000000	          0.01000000	          0.01000000	          0.03548888	          0.01000000	          0.01496850	          0.01000000	          0.02105044	          0.02205556	          0.01000000	          0.01000003	          0.01000003	          0.01000001	          0.01000000	          0.02692475	          0.04836151	          0.01000000	          0.06470642	          0.02244370	
